<?xml version="1.0" standalone="no"?>
<!DOCTYPE svg PUBLIC "-//W3C//DTD SVG 20010904//EN"
 "http://www.w3.org/TR/2001/REC-SVG-20010904/DTD/svg10.dtd">
<svg version="1.0" xmlns="http://www.w3.org/2000/svg"
 width="300.000000pt" height="300.000000pt" viewBox="0 0 300.000000 300.000000"
 preserveAspectRatio="xMidYMid meet">
<metadata>
Created by potrace 1.16, written by Peter Selinger 2001-2019
</metadata>
<g transform="translate(0.000000,300.000000) scale(0.100000,-0.100000)"
fill="#000000" stroke="none">
<path d="M1783 1965 c-53 -12 -67 -20 -115 -64 -38 -34 -24 -47 18 -15 31 24
48 22 23 -3 -15 -15 -15 -95 0 -130 16 -39 45 -55 99 -55 83 0 128 64 119 167
l-4 49 23 -28 c14 -16 24 -40 24 -59 l0 -32 20 25 c22 28 25 51 9 67 -8 8 -8
13 0 17 21 13 11 27 -11 15 -18 -10 -20 -9 -15 5 4 11 2 16 -6 14 -6 -1 -25 5
-42 14 -45 23 -84 27 -142 13z"/>
<path d="M1115 1958 c-16 -6 -35 -15 -41 -20 -6 -4 -19 -6 -28 -2 -12 5 -15 2
-10 -9 5 -14 1 -15 -24 -8 l-30 9 10 -37 c19 -69 97 -199 98 -162 0 7 -11 26
-25 43 -33 39 -33 82 2 114 31 29 37 26 23 -10 -12 -31 0 -94 24 -131 19 -29
83 -50 121 -41 62 16 101 97 77 160 -15 38 -11 41 22 15 36 -28 46 -16 15 17
-52 56 -167 87 -234 62z"/>
<path d="M1920 1585 c0 -8 -4 -15 -10 -15 -5 0 -10 -9 -10 -20 0 -31 -65 -66
-177 -94 -82 -21 -126 -26 -227 -26 -117 0 -131 2 -221 34 -52 19 -95 30 -95
25 0 -5 6 -9 13 -9 37 -1 46 -49 8 -51 -10 0 -12 -2 -3 -6 7 -3 19 0 26 6 9 8
7 -5 -5 -42 -10 -28 -18 -64 -19 -79 0 -15 -4 -30 -10 -33 -5 -3 -10 -15 -10
-26 0 -24 -5 -24 -38 0 -20 14 -51 20 -118 24 l-90 5 -42 -39 c-40 -38 -41
-41 -35 -84 4 -32 14 -53 32 -68 41 -36 53 -63 36 -77 -8 -7 -15 -16 -15 -21
0 -5 53 38 117 95 120 107 133 112 133 54 0 -18 10 -33 30 -48 17 -12 30 -29
31 -38 0 -10 6 -5 14 13 11 25 11 34 0 56 -8 14 -15 51 -16 82 -2 45 2 62 18
80 11 12 26 43 33 70 7 26 16 49 19 51 7 4 114 -13 120 -20 9 -8 -22 -32 -35
-27 -10 3 -12 0 -8 -10 3 -9 -4 -22 -18 -32 -13 -9 -18 -19 -13 -21 48 -20 90
-53 93 -72 3 -18 10 -22 43 -22 32 0 41 4 48 23 5 13 24 30 43 37 54 22 61 31
38 47 -12 8 -19 21 -16 28 2 7 -4 15 -15 18 -32 9 -21 24 25 36 77 19 82 17
106 -46 12 -31 30 -63 42 -71 17 -12 19 -22 14 -59 -8 -61 -32 -102 -69 -118
-18 -8 -26 -14 -19 -15 7 0 22 4 32 10 15 8 19 4 25 -28 4 -20 9 -40 11 -44 6
-9 86 37 109 62 10 11 15 23 12 27 -4 3 -16 -6 -28 -21 -18 -23 -67 -56 -84
-56 -3 0 -5 9 -5 20 0 14 16 28 53 47 28 15 55 26 59 25 4 -1 5 4 2 12 -3 8
-1 17 4 20 5 3 41 -29 78 -72 93 -104 106 -112 120 -69 3 12 20 33 36 47 16
14 38 44 48 67 l18 41 -41 38 c-44 39 -80 50 -177 55 -62 3 -97 -12 -109 -44
-8 -20 -10 -19 -26 18 -9 22 -29 75 -44 118 -22 60 -25 77 -14 77 8 0 12 -3
10 -7 -3 -5 17 -8 43 -8 38 0 46 3 38 13 -8 9 -8 16 1 25 9 9 14 9 20 -2 7
-10 12 -10 30 5 24 21 28 36 6 28 -28 -11 -15 14 25 48 38 34 39 35 20 51 -17
14 -20 14 -20 2z m-463 -227 l23 -22 22 24 c20 22 22 22 35 4 7 -10 11 -24 9
-31 -3 -8 2 -13 13 -13 10 0 24 -7 31 -15 11 -13 5 -18 -33 -35 -25 -11 -47
-28 -49 -37 -5 -25 -68 -26 -68 -1 0 12 -16 26 -45 40 -42 21 -44 23 -28 40
11 12 24 16 37 12 17 -5 18 -4 9 6 -9 10 -9 17 0 31 15 24 16 24 44 -3z"/>
</g>
</svg>
